<svg xmlns="http://www.w3.org/2000/svg" viewBox="0 0 200 200">
  <rect width="200" height="200" rx="44" fill="#141414"/>
  <path d="M63.02,16.48l2.7,8.2c31-16.3,67.7-13.7,90.8,9.5,29.5,29.5,26,80.7-7.8,114.4-33.8,33.8-84.9,37.2-114.4,7.8-23.8-23.8-26.1-61.9-8.2-93.4l-8.1-2.7c-26.1,42.3-24.2,94.5,8,126.8,38.6,38.6,105.9,33.8,150.4-10.6,44.5-44.4,49.2-111.8,10.6-150.4C155.62-5.52,104.82-8.02,63.02,16.48Z" fill="#FFFFFF" transform="translate(10,10) scale(0.9)"/>
  <path d="M40.82,145.58c25,25,68.8,21.9,97.8-7.1,29-29,32.2-72.8,7.2-97.8-19.6-19.6-50.6-21.8-77.1-8l2.8,8.5c15.9-6.3,33.5-4,45,7.5,16.2,16.2,14.2,44.5-4.5,63.2s-47,20.7-63.2,4.5c-12.2-12.2-14.1-31.1-6.4-47.7l-8.3-2.7c-15.3,27-13.5,59.5,6.7,79.7h0v-.1h0Z" fill="#FFFFFF" transform="translate(10,10) scale(0.9)"/>
</svg>
